<svg xmlns="http://www.w3.org/2000/svg" viewBox="0 0 512 512">
  <defs>
    <linearGradient id="bg" x1="0%" y1="0%" x2="100%" y2="100%">
      <stop offset="0%" style="stop-color:#3b82f6"/>
      <stop offset="100%" style="stop-color:#2563eb"/>
    </linearGradient>
  </defs>
  <rect width="512" height="512" rx="108" fill="url(#bg)"/>
  <path d="M256 392c-8.5 0-16.6-3.4-22.6-9.4L138 287.2c-35.2-35.2-35.2-92.3 0-127.5 17.1-17.1 39.8-26.5 63.8-26.5 24 0 46.7 9.4 63.8 26.5l-9.6 9.6 9.6-9.6c17.1-17.1 39.8-26.5 63.8-26.5s46.7 9.4 63.8 26.5c35.2 35.2 35.2 92.3 0 127.5L298.6 382.6c-6 6-14.1 9.4-22.6 9.4h-20 20z" fill="white"/>
</svg>
